# xmcd
#
# Track frame offsets:
#	150
#	23604
#	45475
#	72816
#	99778
#	117250
#	137297
#	150742
#	172638
#	191183
#	214051
#	228580
#
# Disc length: 3272 seconds
#
# Revision: 1
# Processed by: cddbd v1.5.1PL0 Copyright (c) Steve Scherf et al.
# Submitted via: EasyCDDAExtractor 8.2.2.1
#
DISCID=8e0cc60c
DTITLE=Long Distance Call Blues - Bluesville Blues
DYEAR=2003
DGENRE=Blues
TTITLE0=New Orleans Blues
TTITLE1=Drive In Delta
TTITLE2=In The Deep South
TTITLE3=A Brand New World
TTITLE4=I Am A Dreamer
TTITLE5=Blues From Moline
TTITLE6=Bluesville Blues
TTITLE7=Old Time Story
TTITLE8=Angels' Flight
TTITLE9=Requiem Blues
TTITLE10=Still Raining
TTITLE11=Guitar's Strain
EXTD=YEAR: 2003\n
EXTT0=
EXTT1=
EXTT2=
EXTT3=
EXTT4=
EXTT5=
EXTT6=
EXTT7=
EXTT8=
EXTT9=
EXTT10=
EXTT11=
PLAYORDER=
